<svg width="230" height="226" viewBox="0 0 230 226" fill="none" xmlns="http://www.w3.org/2000/svg">
<path d="M115 15C59.75 15 15 59.775 15 115C15 159.192 43.65 196.667 83.375 209.875C88.375 210.817 90.2083 207.725 90.2083 205.067C90.2083 202.692 90.125 196.4 90.0833 188.067C62.2667 194.1 56.4 174.65 56.4 174.65C51.85 163.108 45.275 160.025 45.275 160.025C36.2167 153.825 45.975 153.95 45.975 153.95C56.0167 154.65 61.2917 164.25 61.2917 164.25C70.2083 179.542 84.7 175.125 90.4167 172.567C91.3167 166.1 93.8917 161.692 96.75 159.192C74.5417 156.692 51.2 148.092 51.2 109.775C51.2 98.8583 55.075 89.9417 61.4917 82.9417C60.3667 80.4167 56.9917 70.25 62.3667 56.475C62.3667 56.475 70.7417 53.7917 89.8667 66.725C97.8667 64.5 106.367 63.4 114.867 63.35C123.367 63.4 131.867 64.5 139.867 66.725C158.867 53.7917 167.242 56.475 167.242 56.475C172.617 70.25 169.242 80.4167 168.242 82.9417C174.617 89.9417 178.492 98.8583 178.492 109.775C178.492 148.192 155.117 156.65 132.867 159.108C136.367 162.108 139.617 168.242 139.617 177.608C139.617 190.992 139.492 201.742 139.492 204.992C139.492 207.617 141.242 210.742 146.367 209.742C186.375 196.625 215 159.125 215 115C215 59.775 170.225 15 115 15Z" fill="black"/>
</svg>
