<svg width="230" height="230" viewBox="0 0 230 230" fill="none" xmlns="http://www.w3.org/2000/svg">
<path d="M185.392 185.433H155.775V139.025C155.775 127.958 155.55 113.717 140.342 113.717C124.9 113.717 122.542 125.758 122.542 138.208V185.433H92.925V90H121.375V103.008H121.758C125.733 95.5083 135.4 87.5917 149.842 87.5917C179.85 87.5917 185.4 107.342 185.4 133.05L185.392 185.433ZM59.475 76.9417C49.9417 76.9417 42.2833 69.225 42.2833 59.7333C42.2833 50.25 49.95 42.5417 59.475 42.5417C68.975 42.5417 76.675 50.25 76.675 59.7333C76.675 69.225 68.9667 76.9417 59.475 76.9417ZM74.325 185.433H44.625V90H74.325V185.433ZM200.208 15H29.7583C21.6 15 15 21.45 15 29.4083V200.592C15 208.558 21.6 215 29.7583 215H200.183C208.333 215 215 208.558 215 200.592V29.4083C215 21.45 208.333 15 200.183 15H200.208Z" fill="#0A66C2"/>
</svg>
